<?xml version="1.0" encoding="UTF-8"?>
<svg xmlns="http://www.w3.org/2000/svg" xmlns:xlink="http://www.w3.org/1999/xlink" version="1.1" width="512" height="512" x="0" y="0" viewBox="0 0 682.667 682.667" style="enable-background:new 0 0 512 512" xml:space="preserve" class="">
  <g>
    <defs>
      <clipPath id="a">
        <path d="M0 512h512V0H0Z" fill="#47392e" opacity="1" data-original="#000000" class=""/>
      </clipPath>
    </defs>
    <g clip-path="url(#a)" transform="matrix(1.33333 0 0 -1.33333 0 682.667)">
      <path d="M0 0c-8.34 22.47-12.91 46.82-12.91 72.24 0 112.38 89.269 203.81 199.01 203.81 49.85 0 95.49-18.88 130.44-50.01" style="stroke-width:15;stroke-linecap:round;stroke-linejoin:round;stroke-miterlimit:10;stroke-dasharray:none;stroke-opacity:1" transform="translate(73.66 182.54)" fill="none" stroke="#47392e" stroke-width="15" stroke-linecap="round" stroke-linejoin="round" stroke-miterlimit="10" stroke-dasharray="none" stroke-opacity="" data-original="#000000" opacity="1"/>
      <path d="M0 0c31.271-36.02 50.29-83.43 50.29-135.3 0-112.39-89.269-203.82-199-203.82-28.06 0-54.779 5.98-79.019 16.76" style="stroke-width:15;stroke-linecap:round;stroke-linejoin:round;stroke-miterlimit:10;stroke-dasharray:none;stroke-opacity:1" transform="translate(408.47 390.08)" fill="none" stroke="#47392e" stroke-width="15" stroke-linecap="round" stroke-linejoin="round" stroke-miterlimit="10" stroke-dasharray="none" stroke-opacity="" data-original="#000000" opacity="1"/>
      <path d="M0 0c-22.62-27.13-36.3-62.31-36.3-100.7 0-27.01 6.771-52.43 18.66-74.57" style="stroke-width:15;stroke-linecap:round;stroke-linejoin:round;stroke-miterlimit:10;stroke-dasharray:none;stroke-opacity:1" transform="translate(144.43 355.48)" fill="none" stroke="#47392e" stroke-width="15" stroke-linecap="round" stroke-linejoin="round" stroke-miterlimit="10" stroke-dasharray="none" stroke-opacity="" data-original="#000000" opacity="1"/>
      <path d="M0 0c22.96-27.22 36.85-62.66 36.85-101.36 0-85.63-68.02-155.29-151.621-155.29-28.439 0-55.08 8.06-77.849 22.07" style="stroke-width:15;stroke-linecap:round;stroke-linejoin:round;stroke-miterlimit:10;stroke-dasharray:none;stroke-opacity:1" transform="translate(374.53 356.14)" fill="none" stroke="#47392e" stroke-width="15" stroke-linecap="round" stroke-linejoin="round" stroke-miterlimit="10" stroke-dasharray="none" stroke-opacity="" data-original="#000000" opacity="1"/>
      <path d="M0 0c25.19 19.1 56.34 30.4 90.01 30.4 36.58 0 70.17-13.34 96.4-35.51" style="stroke-width:15;stroke-linecap:round;stroke-linejoin:round;stroke-miterlimit:10;stroke-dasharray:none;stroke-opacity:1" transform="translate(169.75 379.66)" fill="none" stroke="#47392e" stroke-width="15" stroke-linecap="round" stroke-linejoin="round" stroke-miterlimit="10" stroke-dasharray="none" stroke-opacity="" data-original="#000000" opacity="1"/>
      <path d="M0 0c14.13-18.03 22.56-40.73 22.56-65.36 0-58.53-47.61-106.14-106.14-106.14-58.52 0-106.14 47.61-106.14 106.14 0 58.52 47.62 106.14 106.14 106.14 24.55 0 47.18-8.37 65.17-22.41" style="stroke-width:15;stroke-linecap:round;stroke-linejoin:round;stroke-miterlimit:10;stroke-dasharray:none;stroke-opacity:1" transform="translate(339.71 321.32)" fill="none" stroke="#47392e" stroke-width="15" stroke-linecap="round" stroke-linejoin="round" stroke-miterlimit="10" stroke-dasharray="none" stroke-opacity="" data-original="#000000" opacity="1"/>
      <path d="M0 0c5.62-8.92 8.87-19.49 8.87-30.81 0-31.98-25.92-57.9-57.9-57.9-31.97 0-57.89 25.92-57.89 57.9 0 31.97 25.92 57.89 57.89 57.89 11.23 0 21.719-3.2 30.6-8.74" style="stroke-width:15;stroke-linecap:round;stroke-linejoin:round;stroke-miterlimit:10;stroke-dasharray:none;stroke-opacity:1" transform="translate(305.16 286.77)" fill="none" stroke="#47392e" stroke-width="15" stroke-linecap="round" stroke-linejoin="round" stroke-miterlimit="10" stroke-dasharray="none" stroke-opacity="" data-original="#000000" opacity="1"/>
      <path d="m0 0-57.372 19.507c-.588.2-1.05.661-1.25 1.25l-19.507 57.372a5.362 5.362 0 0 0 1.285 5.517l44.386 44.387c2.809 2.808 7.59 1.695 8.868-2.066l17.807-52.372c.2-.588.662-1.05 1.25-1.249l52.372-17.807c3.76-1.279 4.873-6.06 2.065-8.868L5.518 1.285A5.362 5.362 0 0 0 0 0Z" style="stroke-width:15;stroke-linecap:round;stroke-linejoin:round;stroke-miterlimit:10;stroke-dasharray:none;stroke-opacity:1" transform="translate(453.023 374.894)" fill="none" stroke="#47392e" stroke-width="15" stroke-linecap="round" stroke-linejoin="round" stroke-miterlimit="10" stroke-dasharray="none" stroke-opacity="" data-original="#000000" opacity="1"/>
      <path d="m0 0 17.931 17.92C23 23 31.24 23 36.311 17.92a12.946 12.946 0 0 0 3.809-9.19c0-3.33-1.269-6.65-3.809-9.19l-17.92-17.93" style="stroke-width:15;stroke-linecap:round;stroke-linejoin:round;stroke-miterlimit:10;stroke-dasharray:none;stroke-opacity:1" transform="translate(442.89 461.28)" fill="none" stroke="#47392e" stroke-width="15" stroke-linecap="round" stroke-linejoin="round" stroke-miterlimit="10" stroke-dasharray="none" stroke-opacity="" data-original="#000000" opacity="1"/>
      <path d="m0 0-135.069-135.07c-5.071-5.08-5.071-13.31 0-18.39 5.079-5.07 13.309-5.07 18.389 0L18.391-18.39" style="stroke-width:15;stroke-linecap:round;stroke-linejoin:round;stroke-miterlimit:10;stroke-dasharray:none;stroke-opacity:1" transform="translate(390.05 408.44)" fill="none" stroke="#47392e" stroke-width="15" stroke-linecap="round" stroke-linejoin="round" stroke-miterlimit="10" stroke-dasharray="none" stroke-opacity="" data-original="#000000" opacity="1"/>
      <path d="M0 0c10.68 14.68 16.97 32.74 16.97 52.28 0 49.15-39.85 89-89 89-49.151 0-89-39.85-89-89s39.849-89 89-89c16.96 0 32.8 4.74 46.29 12.96" style="stroke-width:15;stroke-linecap:round;stroke-linejoin:round;stroke-miterlimit:10;stroke-dasharray:none;stroke-opacity:1" transform="translate(168.53 44.22)" fill="none" stroke="#47392e" stroke-width="15" stroke-linecap="round" stroke-linejoin="round" stroke-miterlimit="10" stroke-dasharray="none" stroke-opacity="" data-original="#000000" opacity="1"/>
      <path d="M0 0c-5.187.309-10.033 2.689-13.707 6.363l-17.038 17.039c-5.063 5.061-5.443 13.363-.475 18.516 5.062 5.249 13.42 5.307 18.555.173L-.139 29.565a2 2 0 0 1 2.828 0l40.141 40.14c5.062 5.061 13.362 5.443 18.516.476 5.25-5.061 5.307-13.422.174-18.556L15.925 6.03C11.712 1.818 6.006-.357 0 0Z" style="stroke-width:15;stroke-linecap:round;stroke-linejoin:round;stroke-miterlimit:10;stroke-dasharray:none;stroke-opacity:1" transform="translate(81.212 59.664)" fill="none" stroke="#47392e" stroke-width="15" stroke-linecap="round" stroke-linejoin="round" stroke-miterlimit="10" stroke-dasharray="none" stroke-opacity="" data-original="#000000" opacity="1"/>
    </g>
  </g>
</svg>
