<?xml version="1.0" encoding="UTF-8"?>
<svg xmlns="http://www.w3.org/2000/svg" xmlns:xlink="http://www.w3.org/1999/xlink" version="1.1" width="512" height="512" x="0" y="0" viewBox="0 0 100 100" style="enable-background:new 0 0 512 512" xml:space="preserve">
  <g>
    <path d="M98 93h-4.5c-.6 0-1 .4-1 1s.4 1 1 1H98c.6 0 1-.4 1-1s-.4-1-1-1zM74.6 5H21.3c-.2 0-.5.1-.7.3l-15.1 15c-.2.2-.3.4-.3.6v70.5c0 .5.1 1.1.4 1.5H2c-.6 0-1 .4-1 1s.4 1 1 1h87c.6 0 1-.4 1-1s-.4-1-1-1H76.7c.2-.5.4-1 .4-1.5v-24l6.5 6.5c2.5 2.5 6.5 2.5 9 0s2.5-6.5 0-9L83.7 56l.4-.4c.4-.4.4-1 0-1.4s-1-.4-1.4 0l-1.1 1.1-.2.2-1.8-1.8.3-.6c4.1-7.4 3-16.6-2.8-22.8V7.5C77.1 6.1 76 5 74.6 5zM20.3 8.4v10.1c0 .9-.7 1.5-1.5 1.5H8.6zm54.8 83c0 .8-.6 1.5-1.4 1.5h-65c-.8-.1-1.4-.7-1.4-1.5V22h11.6c2 0 3.5-1.6 3.5-3.5V7h52.3c.2 0 .4.2.4.4v21c-3.5-2.8-7.7-4.3-12.2-4.3-5.2 0-10.1 2-13.8 5.7C45.9 33 44 37 43.5 41.4c-.2 0-.4-.1-.6-.1h-3.4c-1.4 0-2.5 1.1-2.5 2.5v9.4h-2.8V38.6c0-1.4-1.1-2.5-2.5-2.5h-3.4c-1.4 0-2.5 1.1-2.5 2.5v14.6H23v-5.5c0-1.4-1.1-2.5-2.5-2.5h-3.4c-1.4 0-2.5 1.1-2.5 2.5v5.5h-1.1c-.6 0-1 .4-1 1s.4 1 1 1h33.6c.6.8 1.2 1.5 1.9 2.2 3.1 3.1 7 4.9 11.2 5.5H30.8c-.6 0-1 .4-1 1s.4 1 1 1h38c.6 0 1-.4 1-1s-.4-1-1-1h-3.2c2.3-.3 4.6-1.1 6.7-2.3.1 0 .2-.1.2-.1l1.9 1.9-1.2 1.2c-.4.4-.4 1 0 1.4s1 .4 1.4 0l.4.4v26zM38.9 53.2v-9.4c0-.3.2-.5.5-.5h3.4c.3 0 .5.2.5.5v9.4zm6.4-.9c.2.3.3.6.5 1h-.5zm-17.5.9V38.6c0-.3.2-.5.5-.5h3.4c.3 0 .5.2.5.5v14.6zm-11.2 0v-5.5c0-.3.2-.5.5-.5h3.4c.3 0 .5.2.5.5v5.5zm74.5 19.3c-1.7 1.7-4.5 1.7-6.2 0L76 63.6l.5-.5 5.5-5.5.2-.2 8.9 8.9c1.7 1.8 1.7 4.5 0 6.2zM75.8 61l-1.4-1.4c1.6-1.1 3-2.5 4.1-4.1l1.4 1.4zm2.3-8.8c-.8 1.4-1.8 2.7-2.9 3.8-1.2 1.2-2.5 2.1-3.9 2.9-6.8 3.8-15.4 2.6-20.9-2.9-3.3-3.3-5.1-7.7-5.1-12.4s1.8-9.1 5.1-12.4 7.7-5.1 12.4-5.1 9.1 1.8 12.4 5.1c5.5 5.6 6.7 14.2 2.9 21z" fill="#47392e" opacity="1" data-original="#000000"/>
    <path d="M21.5 60.6h-6c-1.2 0-2.2 1-2.2 2.2v6c0 1.2 1 2.2 2.2 2.2h6c1.2 0 2.2-1 2.2-2.2v-6c0-1.2-.9-2.2-2.2-2.2zm.2 8.2c0 .1-.1.2-.2.2h-6c-.1 0-.2-.1-.2-.2v-6c0-.1.1-.2.2-.2h6c.1 0 .2.1.2.2zM21.5 73.6h-6c-1.2 0-2.2 1-2.2 2.2v6c0 1.2 1 2.2 2.2 2.2h6c1.2 0 2.2-1 2.2-2.2v-6c0-1.2-.9-2.2-2.2-2.2zm.2 8.3c0 .1-.1.2-.2.2h-6c-.1 0-.2-.1-.2-.2v-6c0-.1.1-.2.2-.2h6c.1 0 .2.1.2.2zM67.1 30.4H67c-4.5-1.4-9.5-.4-13.2 2.8-.3.2-.5.4-.8.7-5.4 5.5-5.4 14.3 0 19.8.5.5 1 .9 1.6 1.4h.1c2.4 1.8 5.3 2.7 8.2 2.7 3.6 0 7.2-1.4 9.9-4.1 5.5-5.5 5.5-14.3 0-19.8-1.8-1.7-3.7-2.9-5.7-3.5zm-1.5 1.7v21.2h-4.3V31.8c1.4-.2 2.9-.1 4.3.3zm-9.1 21.1V35.1c0-.5-.2-1-.4-1.4 1-.7 2.1-1.2 3.2-1.6v21h-2.8zm-2.2-18 .1-.1v17.1l-.1-.1c-4.6-4.6-4.6-12.2 0-16.9zm5.4 20H66c-2.1.6-4.3.6-6.3 0zm11.5-3c-.5.5-1.1 1-1.7 1.4-.2-.2-.4-.4-.7-.4h-1.1V32.7c1.3.6 2.6 1.4 3.6 2.5 4.6 4.7 4.6 12.3-.1 17zM30.8 68.7h18.3c.6 0 1-.4 1-1s-.4-1-1-1H30.8c-.6 0-1 .4-1 1s.5 1 1 1zM68.8 76h-38c-.6 0-1 .4-1 1s.4 1 1 1h38c.6 0 1-.4 1-1s-.5-1-1-1zM49.1 79.7H30.8c-.6 0-1 .4-1 1s.4 1 1 1h18.3c.6 0 1-.4 1-1s-.4-1-1-1zM18.9 36.9l42.8-20.2-1.7 5.1c-.2.7.3 1.3.9 1.3.4 0 .8-.3.9-.7l2.5-7.4c.2-.4-.1-1.1-.6-1.3l-7.4-2.5c-.5-.2-1.1.1-1.3.6s.1 1.1.6 1.3l5.1 1.7-42.6 20.3c-.5.2-.7.8-.5 1.3.3.5.9.7 1.3.5z" fill="#47392e" opacity="1" data-original="#000000"/>
    <path d="m19.7 63.7-2.1 2.1-.2-.2c-.4-.4-1-.4-1.4 0s-.4 1 0 1.4l.9.9c.2.2.4.3.7.3s.5-.1.7-.3l2.8-2.8c.4-.4.4-1 0-1.4s-1-.4-1.4 0zM19.7 76.7l-2.1 2.1-.2-.2c-.4-.4-1-.4-1.4 0s-.4 1 0 1.4l.9.9c.2.2.4.3.7.3s.5-.1.7-.3l2.8-2.8c.4-.4.4-1 0-1.4s-1-.4-1.4 0z" fill="#47392e" opacity="1" data-original="#000000"/>
  </g>
</svg>
